<svg shape-rendering="crispEdges" height="100" width="100" viewBox="0 0 29 29"><path fill="#FFFFFF00" d="M0,0 h29v29H0z"></path><path fill="#FC2D60FF" d="M0 0h7v1H0zM11 0h1v1H11zM13 0h2v1H13zM16 0h1v1H16zM18 0h3v1H18zM22,0 h7v1H22zM0 1h1v1H0zM6 1h1v1H6zM8 1h3v1H8zM14 1h2v1H14zM17 1h1v1H17zM19 1h2v1H19zM22 1h1v1H22zM28,1 h1v1H28zM0 2h1v1H0zM2 2h3v1H2zM6 2h1v1H6zM11 2h3v1H11zM15 2h6v1H15zM22 2h1v1H22zM24 2h3v1H24zM28,2 h1v1H28zM0 3h1v1H0zM2 3h3v1H2zM6 3h1v1H6zM9 3h1v1H9zM12 3h1v1H12zM15 3h1v1H15zM19 3h2v1H19zM22 3h1v1H22zM24 3h3v1H24zM28,3 h1v1H28zM0 4h1v1H0zM2 4h3v1H2zM6 4h1v1H6zM10 4h2v1H10zM14 4h5v1H14zM22 4h1v1H22zM24 4h3v1H24zM28,4 h1v1H28zM0 5h1v1H0zM6 5h1v1H6zM8 5h2v1H8zM12 5h1v1H12zM15 5h3v1H15zM19 5h1v1H19zM22 5h1v1H22zM28,5 h1v1H28zM0 6h7v1H0zM8 6h1v1H8zM10 6h1v1H10zM12 6h1v1H12zM14 6h1v1H14zM16 6h1v1H16zM18 6h1v1H18zM20 6h1v1H20zM22,6 h7v1H22zM8 7h4v1H8zM13 7h1v1H13zM16 7h1v1H16zM19 7h2v1H19zM4 8h4v1H4zM11 8h2v1H11zM14 8h3v1H14zM19 8h2v1H19zM22 8h2v1H22zM27 8h1v1H27zM2 9h3v1H2zM7 9h2v1H7zM11 9h1v1H11zM16 9h1v1H16zM18 9h1v1H18zM21 9h4v1H21zM27,9 h2v1H27zM1 10h2v1H1zM5 10h2v1H5zM11 10h4v1H11zM17 10h2v1H17zM20 10h2v1H20zM23 10h1v1H23zM25 10h2v1H25zM28,10 h1v1H28zM1 11h2v1H1zM4 11h2v1H4zM8 11h1v1H8zM17 11h3v1H17zM21 11h1v1H21zM24 11h2v1H24zM27,11 h2v1H27zM1 12h4v1H1zM6 12h2v1H6zM9 12h1v1H9zM11 12h6v1H11zM19 12h1v1H19zM23 12h1v1H23zM25 12h1v1H25zM28,12 h1v1H28zM2 13h4v1H2zM9 13h1v1H9zM13 13h1v1H13zM15 13h1v1H15zM17 13h2v1H17zM22 13h1v1H22zM24 13h1v1H24zM26 13h1v1H26zM28,13 h1v1H28zM1 14h1v1H1zM3 14h1v1H3zM5 14h2v1H5zM8 14h1v1H8zM12 14h1v1H12zM14 14h3v1H14zM20 14h1v1H20zM22 14h1v1H22zM24 14h1v1H24zM28,14 h1v1H28zM4 15h2v1H4zM9 15h1v1H9zM12 15h1v1H12zM14 15h1v1H14zM16 15h2v1H16zM19 15h2v1H19zM22 15h2v1H22zM25 15h1v1H25zM28,15 h1v1H28zM0 16h2v1H0zM3 16h1v1H3zM5 16h3v1H5zM9 16h1v1H9zM11 16h1v1H11zM15 16h1v1H15zM19 16h3v1H19zM27,16 h2v1H27zM0 17h2v1H0zM3 17h2v1H3zM8 17h5v1H8zM16 17h1v1H16zM21 17h6v1H21zM28,17 h1v1H28zM2 18h6v1H2zM9 18h2v1H9zM12 18h1v1H12zM15 18h4v1H15zM23 18h1v1H23zM25 18h2v1H25zM28,18 h1v1H28zM3 19h2v1H3zM8 19h3v1H8zM16 19h1v1H16zM18 19h3v1H18zM23 19h1v1H23zM25 19h1v1H25zM0 20h3v1H0zM5 20h4v1H5zM12 20h4v1H12zM17 20h1v1H17zM20 20h6v1H20zM27 20h1v1H27zM8 21h1v1H8zM10 21h3v1H10zM17 21h1v1H17zM20 21h1v1H20zM24 21h1v1H24zM26 21h1v1H26zM28,21 h1v1H28zM0 22h7v1H0zM8 22h4v1H8zM14 22h1v1H14zM17 22h1v1H17zM19 22h2v1H19zM22 22h1v1H22zM24 22h1v1H24zM28,22 h1v1H28zM0 23h1v1H0zM6 23h1v1H6zM8 23h1v1H8zM14 23h2v1H14zM18 23h3v1H18zM24 23h2v1H24zM27 23h1v1H27zM0 24h1v1H0zM2 24h3v1H2zM6 24h1v1H6zM8 24h1v1H8zM14 24h1v1H14zM18 24h7v1H18zM27,24 h2v1H27zM0 25h1v1H0zM2 25h3v1H2zM6 25h1v1H6zM10 25h2v1H10zM13 25h1v1H13zM15 25h1v1H15zM17 25h1v1H17zM23 25h1v1H23zM25 25h1v1H25zM27 25h1v1H27zM0 26h1v1H0zM2 26h3v1H2zM6 26h1v1H6zM9 26h2v1H9zM13 26h2v1H13zM17 26h5v1H17zM25,26 h4v1H25zM0 27h1v1H0zM6 27h1v1H6zM11 27h1v1H11zM13 27h1v1H13zM16 27h1v1H16zM20 27h4v1H20zM25 27h1v1H25zM27,27 h2v1H27zM0 28h7v1H0zM12 28h1v1H12zM15 28h2v1H15zM18 28h5v1H18zM24 28h1v1H24zM27 28h1v1H27z"></path></svg>